G04 Layer: TopSilkscreenLayer*
G04 EasyEDA v6.5.20, 2022-10-16 15:23:26*
G04 af273d6a792b4aeebadb685aaa12eaa7,01de8cd48c9644c38d17f752347833e1,10*
G04 Gerber Generator version 0.2*
G04 Scale: 100 percent, Rotated: No, Reflected: No *
G04 Dimensions in millimeters *
G04 leading zeros omitted , absolute positions ,4 integer and 5 decimal *
%FSLAX45Y45*%
%MOMM*%

%ADD10C,0.1524*%
%ADD11C,0.2540*%

%LPD*%
D10*
X1849676Y12218228D02*
G01*
X1860090Y12223562D01*
X1870504Y12233976D01*
X1875584Y12244136D01*
X1875584Y12264964D01*
X1870504Y12275378D01*
X1860090Y12285792D01*
X1849676Y12291126D01*
X1833928Y12296206D01*
X1808020Y12296206D01*
X1792526Y12291126D01*
X1782112Y12285792D01*
X1771698Y12275378D01*
X1766618Y12264964D01*
X1766618Y12244136D01*
X1771698Y12233976D01*
X1782112Y12223562D01*
X1792526Y12218228D01*
X1854756Y12183938D02*
G01*
X1860090Y12173524D01*
X1875584Y12158030D01*
X1766618Y12158030D01*
X302082Y11974576D02*
G01*
X411048Y11974576D01*
X302082Y11974576D02*
G01*
X302082Y12021312D01*
X307162Y12036805D01*
X312496Y12042139D01*
X322910Y12047220D01*
X338404Y12047220D01*
X348818Y12042139D01*
X353898Y12036805D01*
X359232Y12021312D01*
X359232Y11974576D01*
X322910Y12081510D02*
G01*
X317576Y12091924D01*
X302082Y12107671D01*
X411048Y12107671D01*
X2523794Y12712192D02*
G01*
X2523794Y12634213D01*
X2528874Y12618720D01*
X2539288Y12608305D01*
X2555036Y12603226D01*
X2565450Y12603226D01*
X2580944Y12608305D01*
X2591358Y12618720D01*
X2596438Y12634213D01*
X2596438Y12712192D01*
X2630728Y12691363D02*
G01*
X2641142Y12696697D01*
X2656890Y12712192D01*
X2656890Y12603226D01*
X1896922Y12485878D02*
G01*
X1941372Y12485878D01*
X1916988Y12453620D01*
X1929180Y12453620D01*
X1937308Y12449555D01*
X1941372Y12445492D01*
X1945436Y12433300D01*
X1945436Y12425426D01*
X1941372Y12413234D01*
X1933244Y12405105D01*
X1921052Y12401042D01*
X1909114Y12401042D01*
X1896922Y12405105D01*
X1892858Y12409170D01*
X1888794Y12417297D01*
X1972106Y12485878D02*
G01*
X2004364Y12401042D01*
X2036622Y12485878D02*
G01*
X2004364Y12401042D01*
X2071420Y12485878D02*
G01*
X2115870Y12485878D01*
X2091740Y12453620D01*
X2103678Y12453620D01*
X2111806Y12449555D01*
X2115870Y12445492D01*
X2119934Y12433300D01*
X2119934Y12425426D01*
X2115870Y12413234D01*
X2107742Y12405105D01*
X2095804Y12401042D01*
X2083612Y12401042D01*
X2071420Y12405105D01*
X2067356Y12409170D01*
X2063292Y12417297D01*
X1949500Y12338812D02*
G01*
X1945436Y12346686D01*
X1937308Y12354813D01*
X1929180Y12358878D01*
X1912924Y12358878D01*
X1905050Y12354813D01*
X1896922Y12346686D01*
X1892858Y12338812D01*
X1888794Y12326620D01*
X1888794Y12306300D01*
X1892858Y12294362D01*
X1896922Y12286234D01*
X1905050Y12278105D01*
X1912924Y12274042D01*
X1929180Y12274042D01*
X1937308Y12278105D01*
X1945436Y12286234D01*
X1949500Y12294362D01*
X1949500Y12306300D01*
X1929180Y12306300D02*
G01*
X1949500Y12306300D01*
X1976170Y12358878D02*
G01*
X1976170Y12274042D01*
X1976170Y12358878D02*
G01*
X2032558Y12274042D01*
X2032558Y12358878D02*
G01*
X2032558Y12274042D01*
X2059228Y12358878D02*
G01*
X2059228Y12274042D01*
X2059228Y12358878D02*
G01*
X2087676Y12358878D01*
X2099614Y12354813D01*
X2107742Y12346686D01*
X2111806Y12338812D01*
X2115870Y12326620D01*
X2115870Y12306300D01*
X2111806Y12294362D01*
X2107742Y12286234D01*
X2099614Y12278105D01*
X2087676Y12274042D01*
X2059228Y12274042D01*
X1949500Y12211812D02*
G01*
X1945436Y12219686D01*
X1937308Y12227813D01*
X1929180Y12231878D01*
X1912924Y12231878D01*
X1905050Y12227813D01*
X1896922Y12219686D01*
X1892858Y12211812D01*
X1888794Y12199620D01*
X1888794Y12179300D01*
X1892858Y12167362D01*
X1896922Y12159234D01*
X1905050Y12151105D01*
X1912924Y12147042D01*
X1929180Y12147042D01*
X1937308Y12151105D01*
X1945436Y12159234D01*
X1949500Y12167362D01*
X1976170Y12231878D02*
G01*
X1976170Y12147042D01*
X1976170Y12231878D02*
G01*
X2028494Y12231878D01*
X1976170Y12191492D02*
G01*
X2008428Y12191492D01*
X1976170Y12147042D02*
G01*
X2028494Y12147042D01*
X1949500Y12084812D02*
G01*
X1945436Y12092686D01*
X1937308Y12100813D01*
X1929180Y12104878D01*
X1912924Y12104878D01*
X1905050Y12100813D01*
X1896922Y12092686D01*
X1892858Y12084812D01*
X1888794Y12072620D01*
X1888794Y12052300D01*
X1892858Y12040362D01*
X1896922Y12032234D01*
X1905050Y12024105D01*
X1912924Y12020042D01*
X1929180Y12020042D01*
X1937308Y12024105D01*
X1945436Y12032234D01*
X1949500Y12040362D01*
X2032558Y12092686D02*
G01*
X2024684Y12100813D01*
X2012492Y12104878D01*
X1996236Y12104878D01*
X1984044Y12100813D01*
X1976170Y12092686D01*
X1976170Y12084812D01*
X1980234Y12076684D01*
X1984044Y12072620D01*
X1992172Y12068555D01*
X2016556Y12060428D01*
X2024684Y12056363D01*
X2028494Y12052300D01*
X2032558Y12044426D01*
X2032558Y12032234D01*
X2024684Y12024105D01*
X2012492Y12020042D01*
X1996236Y12020042D01*
X1984044Y12024105D01*
X1976170Y12032234D01*
X2059228Y12104878D02*
G01*
X2059228Y12020042D01*
X2059228Y12104878D02*
G01*
X2115870Y12020042D01*
X2115870Y12104878D02*
G01*
X2115870Y12020042D01*
X1945436Y11965686D02*
G01*
X1937308Y11973813D01*
X1925116Y11977878D01*
X1909114Y11977878D01*
X1896922Y11973813D01*
X1888794Y11965686D01*
X1888794Y11957812D01*
X1892858Y11949684D01*
X1896922Y11945620D01*
X1905050Y11941555D01*
X1929180Y11933428D01*
X1937308Y11929363D01*
X1941372Y11925300D01*
X1945436Y11917426D01*
X1945436Y11905234D01*
X1937308Y11897105D01*
X1925116Y11893042D01*
X1909114Y11893042D01*
X1896922Y11897105D01*
X1888794Y11905234D01*
X2032558Y11957812D02*
G01*
X2028494Y11965686D01*
X2020620Y11973813D01*
X2012492Y11977878D01*
X1996236Y11977878D01*
X1988108Y11973813D01*
X1980234Y11965686D01*
X1976170Y11957812D01*
X1972106Y11945620D01*
X1972106Y11925300D01*
X1976170Y11913362D01*
X1980234Y11905234D01*
X1988108Y11897105D01*
X1996236Y11893042D01*
X2012492Y11893042D01*
X2020620Y11897105D01*
X2028494Y11905234D01*
X2032558Y11913362D01*
X2059228Y11977878D02*
G01*
X2059228Y11893042D01*
X2115870Y11977878D02*
G01*
X2059228Y11921236D01*
X2079548Y11941555D02*
G01*
X2115870Y11893042D01*
X1888794Y11850878D02*
G01*
X1888794Y11766042D01*
X1888794Y11850878D02*
G01*
X1921052Y11766042D01*
X1953564Y11850878D02*
G01*
X1921052Y11766042D01*
X1953564Y11850878D02*
G01*
X1953564Y11766042D01*
X2004364Y11850878D02*
G01*
X1996236Y11846813D01*
X1988108Y11838686D01*
X1984044Y11830812D01*
X1980234Y11818620D01*
X1980234Y11798300D01*
X1984044Y11786362D01*
X1988108Y11778234D01*
X1996236Y11770105D01*
X2004364Y11766042D01*
X2020620Y11766042D01*
X2028494Y11770105D01*
X2036622Y11778234D01*
X2040686Y11786362D01*
X2044750Y11798300D01*
X2044750Y11818620D01*
X2040686Y11830812D01*
X2036622Y11838686D01*
X2028494Y11846813D01*
X2020620Y11850878D01*
X2004364Y11850878D01*
X2128062Y11838686D02*
G01*
X2119934Y11846813D01*
X2107742Y11850878D01*
X2091740Y11850878D01*
X2079548Y11846813D01*
X2071420Y11838686D01*
X2071420Y11830812D01*
X2075484Y11822684D01*
X2079548Y11818620D01*
X2087676Y11814555D01*
X2111806Y11806428D01*
X2119934Y11802363D01*
X2123998Y11798300D01*
X2128062Y11790426D01*
X2128062Y11778234D01*
X2119934Y11770105D01*
X2107742Y11766042D01*
X2091740Y11766042D01*
X2079548Y11770105D01*
X2071420Y11778234D01*
X2154732Y11850878D02*
G01*
X2154732Y11766042D01*
X1888794Y11723878D02*
G01*
X1888794Y11639042D01*
X1888794Y11723878D02*
G01*
X1921052Y11639042D01*
X1953564Y11723878D02*
G01*
X1921052Y11639042D01*
X1953564Y11723878D02*
G01*
X1953564Y11639042D01*
X1980234Y11723878D02*
G01*
X1980234Y11639042D01*
X2063292Y11711686D02*
G01*
X2055164Y11719813D01*
X2043226Y11723878D01*
X2026970Y11723878D01*
X2014778Y11719813D01*
X2006904Y11711686D01*
X2006904Y11703812D01*
X2010714Y11695684D01*
X2014778Y11691620D01*
X2022906Y11687555D01*
X2047290Y11679428D01*
X2055164Y11675363D01*
X2059228Y11671300D01*
X2063292Y11663426D01*
X2063292Y11651234D01*
X2055164Y11643105D01*
X2043226Y11639042D01*
X2026970Y11639042D01*
X2014778Y11643105D01*
X2006904Y11651234D01*
X2114346Y11723878D02*
G01*
X2106218Y11719813D01*
X2098090Y11711686D01*
X2094026Y11703812D01*
X2089962Y11691620D01*
X2089962Y11671300D01*
X2094026Y11659362D01*
X2098090Y11651234D01*
X2106218Y11643105D01*
X2114346Y11639042D01*
X2130348Y11639042D01*
X2138476Y11643105D01*
X2146604Y11651234D01*
X2150668Y11659362D01*
X2154732Y11671300D01*
X2154732Y11691620D01*
X2150668Y11703812D01*
X2146604Y11711686D01*
X2138476Y11719813D01*
X2130348Y11723878D01*
X2114346Y11723878D01*
X1888794Y11596878D02*
G01*
X1888794Y11512042D01*
X1915464Y11596878D02*
G01*
X1915464Y11512042D01*
X1915464Y11596878D02*
G01*
X1951786Y11596878D01*
X1963978Y11592813D01*
X1968042Y11588750D01*
X1972106Y11580876D01*
X1972106Y11572747D01*
X1968042Y11564620D01*
X1963978Y11560555D01*
X1951786Y11556492D01*
X1915464Y11556492D01*
X1943658Y11556492D02*
G01*
X1972106Y11512042D01*
X2022906Y11596878D02*
G01*
X2014778Y11592813D01*
X2006904Y11584686D01*
X2002840Y11576812D01*
X1998776Y11564620D01*
X1998776Y11544300D01*
X2002840Y11532362D01*
X2006904Y11524234D01*
X2014778Y11516105D01*
X2022906Y11512042D01*
X2039162Y11512042D01*
X2047290Y11516105D01*
X2055164Y11524234D01*
X2059228Y11532362D01*
X2063292Y11544300D01*
X2063292Y11564620D01*
X2059228Y11576812D01*
X2055164Y11584686D01*
X2047290Y11592813D01*
X2039162Y11596878D01*
X2022906Y11596878D01*
X2035098Y11528297D02*
G01*
X2059228Y11503913D01*
X2721660Y11668252D02*
G01*
X2717596Y11676126D01*
X2709468Y11684254D01*
X2701340Y11688318D01*
X2685084Y11688318D01*
X2677210Y11684254D01*
X2669082Y11676126D01*
X2665018Y11668252D01*
X2660954Y11656060D01*
X2660954Y11635739D01*
X2665018Y11623802D01*
X2669082Y11615674D01*
X2677210Y11607545D01*
X2685084Y11603481D01*
X2701340Y11603481D01*
X2709468Y11607545D01*
X2717596Y11615674D01*
X2721660Y11623802D01*
X2721660Y11635739D01*
X2701340Y11635739D02*
G01*
X2721660Y11635739D01*
X2748330Y11688318D02*
G01*
X2748330Y11603481D01*
X2748330Y11688318D02*
G01*
X2804718Y11603481D01*
X2804718Y11688318D02*
G01*
X2804718Y11603481D01*
X2831388Y11688318D02*
G01*
X2831388Y11603481D01*
X2831388Y11688318D02*
G01*
X2859836Y11688318D01*
X2871774Y11684254D01*
X2879902Y11676126D01*
X2883966Y11668252D01*
X2888030Y11656060D01*
X2888030Y11635739D01*
X2883966Y11623802D01*
X2879902Y11615674D01*
X2871774Y11607545D01*
X2859836Y11603481D01*
X2831388Y11603481D01*
X2439657Y12349975D02*
G01*
X2354821Y12349975D01*
X2439657Y12349975D02*
G01*
X2354821Y12293333D01*
X2439657Y12293333D02*
G01*
X2354821Y12293333D01*
X2439657Y12266663D02*
G01*
X2354821Y12266663D01*
X2439657Y12266663D02*
G01*
X2439657Y12230341D01*
X2435593Y12218149D01*
X2431529Y12214085D01*
X2423655Y12210275D01*
X2415527Y12210275D01*
X2407399Y12214085D01*
X2403335Y12218149D01*
X2399271Y12230341D01*
X2399271Y12266663D01*
X2399271Y12238469D02*
G01*
X2354821Y12210275D01*
X2439657Y12183605D02*
G01*
X2354821Y12183605D01*
X2439657Y12183605D02*
G01*
X2439657Y12131027D01*
X2399271Y12183605D02*
G01*
X2399271Y12151093D01*
X2419591Y12100293D02*
G01*
X2423655Y12100293D01*
X2431529Y12096229D01*
X2435593Y12092165D01*
X2439657Y12084037D01*
X2439657Y12068035D01*
X2435593Y12059907D01*
X2431529Y12055843D01*
X2423655Y12051779D01*
X2415527Y12051779D01*
X2407399Y12055843D01*
X2395207Y12063971D01*
X2354821Y12104357D01*
X2354821Y12047715D01*
X2439657Y11980659D02*
G01*
X2383015Y12021045D01*
X2383015Y11960339D01*
X2439657Y11980659D02*
G01*
X2354821Y11980659D01*
X2439657Y11933669D02*
G01*
X2354821Y11933669D01*
X2354821Y11933669D02*
G01*
X2354821Y11885155D01*
X2439657Y11834355D02*
G01*
X2435593Y11846547D01*
X2423655Y11854675D01*
X2403335Y11858485D01*
X2391143Y11858485D01*
X2371077Y11854675D01*
X2358885Y11846547D01*
X2354821Y11834355D01*
X2354821Y11826227D01*
X2358885Y11814035D01*
X2371077Y11806161D01*
X2391143Y11802097D01*
X2403335Y11802097D01*
X2423655Y11806161D01*
X2435593Y11814035D01*
X2439657Y11826227D01*
X2439657Y11834355D01*
X2423655Y11775427D02*
G01*
X2427465Y11767299D01*
X2439657Y11755107D01*
X2354821Y11755107D01*
X2427465Y11692115D02*
G01*
X2354821Y11692115D01*
X2391143Y11728437D02*
G01*
X2391143Y11655793D01*
G36*
X1049985Y12024969D02*
G01*
X1063955Y12012218D01*
X1078484Y12000128D01*
X1093520Y11988647D01*
X1101242Y11983110D01*
X1116990Y11972645D01*
X1133144Y11962892D01*
X1149756Y11953798D01*
X1166723Y11945467D01*
X1184046Y11937847D01*
X1201674Y11931040D01*
X1210614Y11927890D01*
X1228648Y11922252D01*
X1246936Y11917375D01*
X1265428Y11913260D01*
X1284020Y11910009D01*
X1302816Y11907520D01*
X1321663Y11905894D01*
X1340561Y11905081D01*
X1359458Y11905081D01*
X1378356Y11905894D01*
X1397203Y11907520D01*
X1415948Y11910009D01*
X1434592Y11913260D01*
X1453032Y11917375D01*
X1471320Y11922252D01*
X1489354Y11927890D01*
X1507134Y11934342D01*
X1524660Y11941556D01*
X1541780Y11949531D01*
X1558594Y11958269D01*
X1575003Y11967667D01*
X1590954Y11977827D01*
X1598777Y11983110D01*
X1614068Y11994286D01*
X1628851Y12006072D01*
X1643075Y12018518D01*
X1649984Y12024969D01*
G37*
D11*
X1569996Y12399975D02*
G01*
X1569996Y12524435D01*
X1501416Y12463475D02*
G01*
X1636036Y12463475D01*
X1166698Y11745976D02*
G01*
X1344498Y11745976D01*
X1336878Y11751055D01*
X1166698Y11745976D02*
G01*
X1166698Y12253976D01*
X1341958Y12253976D01*
X1336878Y12253976D01*
X459994Y10984966D02*
G01*
X459994Y13014960D01*
X1340002Y13014960D01*
X1340002Y10984966D01*
X459994Y10984966D01*
X1710994Y11428476D02*
G01*
X1710994Y11479276D01*
X1710994Y12571476D02*
G01*
X1710994Y12520676D01*
X2648483Y12492964D02*
G01*
X2773502Y12492964D01*
X3398494Y12492964D01*
X3398494Y12367971D01*
X3023488Y12367971D01*
X3023488Y12242977D01*
X3398494Y12242977D01*
X3398494Y12117984D01*
X3023488Y12117984D01*
X3023488Y11992965D01*
X3398494Y11992965D01*
X3398494Y11867972D01*
X3023488Y11867972D01*
X3023488Y11742978D01*
X3398494Y11742978D01*
X3398494Y11492966D01*
X1710994Y12571476D02*
G01*
X3488994Y12571476D01*
X3488994Y11428476D01*
X1710994Y11428476D01*
X2773502Y12492964D02*
G01*
X2773502Y11805488D01*
G75*
G01*
X1750047Y12299721D02*
G03*
X1750047Y12292609I-399984J-3556D01*
M02*
